<mxfile host="app.diagrams.net" modified="2024-01-29T07:32:35.966Z" agent="Mozilla/5.0 (Windows NT 10.0; Win64; x64) AppleWebKit/537.36 (KHTML, like Gecko) Chrome/121.0.0.0 Safari/537.36" etag="WuY_dLHDd-QzXlAEM7s8" version="23.0.2" type="device">
  <diagram name="Страница — 1" id="F8WDM5Bhm03_483O6do8">
    <mxGraphModel dx="2074" dy="1106" grid="1" gridSize="10" guides="1" tooltips="1" connect="1" arrows="1" fold="1" page="1" pageScale="1" pageWidth="827" pageHeight="1169" math="0" shadow="0">
      <root>
        <mxCell id="0" />
        <mxCell id="1" parent="0" />
        <mxCell id="c9h-XzMY3wix9LDsi8ki-3" style="edgeStyle=orthogonalEdgeStyle;rounded=0;orthogonalLoop=1;jettySize=auto;html=1;" parent="1" source="c9h-XzMY3wix9LDsi8ki-1" target="c9h-XzMY3wix9LDsi8ki-2" edge="1">
          <mxGeometry relative="1" as="geometry" />
        </mxCell>
        <mxCell id="c9h-XzMY3wix9LDsi8ki-1" value="1" style="ellipse;whiteSpace=wrap;html=1;" parent="1" vertex="1">
          <mxGeometry x="318.5" y="70" width="120" height="80" as="geometry" />
        </mxCell>
        <mxCell id="c9h-XzMY3wix9LDsi8ki-5" style="edgeStyle=orthogonalEdgeStyle;rounded=0;orthogonalLoop=1;jettySize=auto;html=1;exitX=0.5;exitY=1;exitDx=0;exitDy=0;entryX=0.5;entryY=0;entryDx=0;entryDy=0;" parent="1" source="c9h-XzMY3wix9LDsi8ki-2" target="c9h-XzMY3wix9LDsi8ki-4" edge="1">
          <mxGeometry relative="1" as="geometry" />
        </mxCell>
        <mxCell id="c9h-XzMY3wix9LDsi8ki-2" value="&lt;div style=&quot;&quot;&gt;&lt;span style=&quot;background-color: initial;&quot;&gt;arr[5]=[5;&amp;nbsp; -100; stray; -7;main]&amp;nbsp;&lt;/span&gt;&lt;/div&gt;" style="shape=parallelogram;perimeter=parallelogramPerimeter;whiteSpace=wrap;html=1;fixedSize=1;fillColor=#d5e8d4;strokeColor=#82b366;align=center;" parent="1" vertex="1">
          <mxGeometry x="277" y="190" width="203" height="90" as="geometry" />
        </mxCell>
        <mxCell id="c9h-XzMY3wix9LDsi8ki-16" style="edgeStyle=orthogonalEdgeStyle;rounded=0;orthogonalLoop=1;jettySize=auto;html=1;exitX=0.5;exitY=1;exitDx=0;exitDy=0;entryX=0.5;entryY=0;entryDx=0;entryDy=0;" parent="1" source="c9h-XzMY3wix9LDsi8ki-4" target="c9h-XzMY3wix9LDsi8ki-7" edge="1">
          <mxGeometry relative="1" as="geometry" />
        </mxCell>
        <mxCell id="c9h-XzMY3wix9LDsi8ki-4" value="&lt;br&gt;i=0&lt;br&gt;" style="rounded=0;whiteSpace=wrap;html=1;fillColor=#ffe6cc;strokeColor=#d79b00;" parent="1" vertex="1">
          <mxGeometry x="324.88" y="310" width="107.25" height="60" as="geometry" />
        </mxCell>
        <mxCell id="c9h-XzMY3wix9LDsi8ki-31" style="edgeStyle=orthogonalEdgeStyle;rounded=0;orthogonalLoop=1;jettySize=auto;html=1;exitX=0.5;exitY=1;exitDx=0;exitDy=0;entryX=0.5;entryY=0;entryDx=0;entryDy=0;" parent="1" source="c9h-XzMY3wix9LDsi8ki-7" target="c9h-XzMY3wix9LDsi8ki-13" edge="1">
          <mxGeometry relative="1" as="geometry" />
        </mxCell>
        <mxCell id="c9h-XzMY3wix9LDsi8ki-33" value="yes" style="edgeLabel;html=1;align=center;verticalAlign=middle;resizable=0;points=[];" parent="c9h-XzMY3wix9LDsi8ki-31" vertex="1" connectable="0">
          <mxGeometry x="0.0475" relative="1" as="geometry">
            <mxPoint as="offset" />
          </mxGeometry>
        </mxCell>
        <mxCell id="c9h-XzMY3wix9LDsi8ki-7" value="i&amp;lt;array.lenght" style="rhombus;whiteSpace=wrap;html=1;fillColor=#fff2cc;strokeColor=#d6b656;" parent="1" vertex="1">
          <mxGeometry x="293.5" y="410" width="170" height="80" as="geometry" />
        </mxCell>
        <mxCell id="c9h-XzMY3wix9LDsi8ki-19" style="edgeStyle=orthogonalEdgeStyle;rounded=0;orthogonalLoop=1;jettySize=auto;html=1;entryX=0.567;entryY=0.05;entryDx=0;entryDy=0;entryPerimeter=0;" parent="1" source="c9h-XzMY3wix9LDsi8ki-13" target="c9h-XzMY3wix9LDsi8ki-15" edge="1">
          <mxGeometry relative="1" as="geometry">
            <mxPoint x="540" y="625" as="targetPoint" />
          </mxGeometry>
        </mxCell>
        <mxCell id="c9h-XzMY3wix9LDsi8ki-28" value="yes" style="edgeLabel;html=1;align=center;verticalAlign=middle;resizable=0;points=[];" parent="c9h-XzMY3wix9LDsi8ki-19" vertex="1" connectable="0">
          <mxGeometry x="-0.3829" y="3" relative="1" as="geometry">
            <mxPoint y="3" as="offset" />
          </mxGeometry>
        </mxCell>
        <mxCell id="c9h-XzMY3wix9LDsi8ki-20" style="edgeStyle=orthogonalEdgeStyle;rounded=0;orthogonalLoop=1;jettySize=auto;html=1;exitX=0;exitY=0.5;exitDx=0;exitDy=0;entryX=0.5;entryY=0;entryDx=0;entryDy=0;" parent="1" source="c9h-XzMY3wix9LDsi8ki-13" target="c9h-XzMY3wix9LDsi8ki-14" edge="1">
          <mxGeometry relative="1" as="geometry">
            <mxPoint x="200" y="625" as="targetPoint" />
          </mxGeometry>
        </mxCell>
        <mxCell id="c9h-XzMY3wix9LDsi8ki-29" value="no" style="edgeLabel;html=1;align=center;verticalAlign=middle;resizable=0;points=[];" parent="c9h-XzMY3wix9LDsi8ki-20" vertex="1" connectable="0">
          <mxGeometry x="-0.4041" y="1" relative="1" as="geometry">
            <mxPoint y="-1" as="offset" />
          </mxGeometry>
        </mxCell>
        <mxCell id="c9h-XzMY3wix9LDsi8ki-13" value="arr[i].lenght&amp;lt;=3" style="rhombus;whiteSpace=wrap;html=1;fillColor=#fff2cc;strokeColor=#d6b656;" parent="1" vertex="1">
          <mxGeometry x="318.5" y="585" width="120" height="85" as="geometry" />
        </mxCell>
        <mxCell id="c9h-XzMY3wix9LDsi8ki-26" style="edgeStyle=orthogonalEdgeStyle;rounded=0;orthogonalLoop=1;jettySize=auto;html=1;exitX=0;exitY=0.5;exitDx=0;exitDy=0;" parent="1" source="c9h-XzMY3wix9LDsi8ki-14" edge="1">
          <mxGeometry relative="1" as="geometry">
            <mxPoint x="380" y="380" as="targetPoint" />
            <Array as="points">
              <mxPoint x="120" y="720" />
              <mxPoint x="120" y="380" />
            </Array>
          </mxGeometry>
        </mxCell>
        <mxCell id="c9h-XzMY3wix9LDsi8ki-14" value="i++" style="rounded=0;whiteSpace=wrap;html=1;fillColor=#ffe6cc;strokeColor=#d79b00;" parent="1" vertex="1">
          <mxGeometry x="140" y="690" width="150" height="60" as="geometry" />
        </mxCell>
        <mxCell id="c9h-XzMY3wix9LDsi8ki-22" style="edgeStyle=orthogonalEdgeStyle;rounded=0;orthogonalLoop=1;jettySize=auto;html=1;exitX=0;exitY=0.5;exitDx=0;exitDy=0;entryX=1;entryY=0.5;entryDx=0;entryDy=0;" parent="1" source="c9h-XzMY3wix9LDsi8ki-15" target="c9h-XzMY3wix9LDsi8ki-14" edge="1">
          <mxGeometry relative="1" as="geometry" />
        </mxCell>
        <mxCell id="c9h-XzMY3wix9LDsi8ki-15" value="&amp;nbsp;System.Console.WriteLine&lt;br&gt;( array[i] + &quot; &quot;);" style="rounded=0;whiteSpace=wrap;html=1;fillColor=#ffe6cc;strokeColor=#d79b00;" parent="1" vertex="1">
          <mxGeometry x="470" y="690" width="160" height="60" as="geometry" />
        </mxCell>
        <mxCell id="c9h-XzMY3wix9LDsi8ki-21" style="edgeStyle=orthogonalEdgeStyle;rounded=0;orthogonalLoop=1;jettySize=auto;html=1;entryX=0;entryY=0.5;entryDx=0;entryDy=0;" parent="1" source="c9h-XzMY3wix9LDsi8ki-7" target="c9h-XzMY3wix9LDsi8ki-27" edge="1">
          <mxGeometry relative="1" as="geometry">
            <mxPoint x="610" y="450" as="targetPoint" />
          </mxGeometry>
        </mxCell>
        <mxCell id="c9h-XzMY3wix9LDsi8ki-32" value="no" style="edgeLabel;html=1;align=center;verticalAlign=middle;resizable=0;points=[];" parent="c9h-XzMY3wix9LDsi8ki-21" vertex="1" connectable="0">
          <mxGeometry x="-0.3337" y="-1" relative="1" as="geometry">
            <mxPoint as="offset" />
          </mxGeometry>
        </mxCell>
        <mxCell id="c9h-XzMY3wix9LDsi8ki-27" value="End" style="ellipse;whiteSpace=wrap;html=1;" parent="1" vertex="1">
          <mxGeometry x="630" y="410" width="120" height="80" as="geometry" />
        </mxCell>
      </root>
    </mxGraphModel>
  </diagram>
</mxfile>
